<?xml version="1.0" standalone="no"?>
<!DOCTYPE svg PUBLIC "-//W3C//DTD SVG 20010904//EN"
 "http://www.w3.org/TR/2001/REC-SVG-20010904/DTD/svg10.dtd">
<svg version="1.0" xmlns="http://www.w3.org/2000/svg"
 width="894.000000pt" height="894.000000pt" viewBox="0 0 894.000000 894.000000"
 preserveAspectRatio="xMidYMid meet">
<metadata>
Created by potrace 1.11, written by Peter Selinger 2001-2013
</metadata>
<g transform="translate(0.000000,894.000000) scale(0.100000,-0.100000)"
fill="#000000" stroke="none">
<path d="M0 4470 l0 -4470 4470 0 4470 0 0 4470 0 4470 -4470 0 -4470 0 0
-4470z m4970 2055 c90 -9 193 -22 228 -28 l64 -12 80 -245 c45 -135 126 -384
182 -555 l102 -310 229 -47 c127 -25 239 -47 251 -47 19 -1 25 23 88 345 l69
346 46 -6 c25 -3 116 -10 201 -16 238 -16 236 -15 291 -67 55 -51 96 -118 129
-210 l22 -61 -26 -229 c-15 -125 -47 -403 -72 -618 -25 -214 -50 -435 -57
-490 l-12 -99 48 -45 49 -46 -7 -71 c-6 -67 -5 -72 14 -77 14 -3 21 -13 21
-30 0 -14 32 -88 71 -164 l71 -138 -31 -175 c-17 -96 -33 -194 -37 -217 -5
-36 -19 -54 -104 -137 -80 -80 -102 -96 -128 -96 -30 0 -31 -2 -38 -56 l-6
-56 -32 30 c-182 170 -631 297 -1264 357 -290 27 -500 35 -960 36 -452 0 -632
-7 -972 -37 -561 -49 -1015 -169 -1210 -319 -65 -50 -62 -51 -72 20 -2 13 -12
21 -29 23 -17 2 -58 36 -121 100 l-95 97 -38 215 -37 215 71 138 c39 76 71
149 71 162 0 13 4 26 9 29 5 4 5 22 0 43 -16 69 -12 81 48 138 31 30 61 55 65
55 5 0 7 4 4 8 -4 6 -88 712 -172 1439 -5 45 -2 59 26 112 37 68 114 154 175
194 38 25 49 26 263 37 123 7 225 10 227 8 2 -1 31 -156 65 -343 34 -187 64
-342 66 -344 2 -3 111 13 242 35 l237 40 192 539 c105 297 196 552 201 566 12
32 17 33 247 54 408 38 738 41 1055 10z"/>
</g>
</svg>
